<mxfile host="Electron" modified="2024-04-10T07:06:12.249Z" agent="Mozilla/5.0 (Windows NT 10.0; Win64; x64) AppleWebKit/537.36 (KHTML, like Gecko) draw.io/24.0.4 Chrome/120.0.6099.109 Electron/28.1.0 Safari/537.36" etag="5SfJ2XK0eNp-chPW3McD" version="24.0.4" type="device">
  <diagram name="Page-1" id="Tm5-Pf5zLw2kzrvyumlG">
    <mxGraphModel dx="819" dy="482" grid="1" gridSize="10" guides="1" tooltips="1" connect="1" arrows="1" fold="1" page="1" pageScale="1" pageWidth="850" pageHeight="1100" math="0" shadow="0">
      <root>
        <mxCell id="0" />
        <mxCell id="1" parent="0" />
        <mxCell id="Ixpic3u72azCKcVnDw46-1" value="Источник питания" style="rounded=0;whiteSpace=wrap;html=1;" parent="1" vertex="1">
          <mxGeometry x="210" y="240" width="120" height="60" as="geometry" />
        </mxCell>
        <mxCell id="Ixpic3u72azCKcVnDw46-2" value="Модуль регулирования питания" style="rounded=0;whiteSpace=wrap;html=1;" parent="1" vertex="1">
          <mxGeometry x="210" y="320" width="120" height="60" as="geometry" />
        </mxCell>
        <mxCell id="Ixpic3u72azCKcVnDw46-3" value="Импульсный генератор" style="rounded=0;whiteSpace=wrap;html=1;" parent="1" vertex="1">
          <mxGeometry x="210" y="420" width="120" height="60" as="geometry" />
        </mxCell>
        <mxCell id="Ixpic3u72azCKcVnDw46-4" value="Генератор, управляемый импульсами" style="rounded=0;whiteSpace=wrap;html=1;" parent="1" vertex="1">
          <mxGeometry x="360" y="470" width="120" height="60" as="geometry" />
        </mxCell>
        <mxCell id="Ixpic3u72azCKcVnDw46-5" value="Генератор, управляемый напряжением" style="rounded=0;whiteSpace=wrap;html=1;" parent="1" vertex="1">
          <mxGeometry x="530" y="470" width="120" height="60" as="geometry" />
        </mxCell>
        <mxCell id="Ixpic3u72azCKcVnDw46-6" value="RF-вывод" style="rounded=0;whiteSpace=wrap;html=1;" parent="1" vertex="1">
          <mxGeometry x="680" y="470" width="120" height="60" as="geometry" />
        </mxCell>
        <mxCell id="Ixpic3u72azCKcVnDw46-8" value="" style="endArrow=classic;html=1;rounded=0;" parent="1" edge="1">
          <mxGeometry width="50" height="50" relative="1" as="geometry">
            <mxPoint x="269.71000000000004" y="300" as="sourcePoint" />
            <mxPoint x="269.71000000000004" y="320" as="targetPoint" />
          </mxGeometry>
        </mxCell>
        <mxCell id="Ixpic3u72azCKcVnDw46-9" value="" style="endArrow=classic;html=1;rounded=0;" parent="1" source="Ixpic3u72azCKcVnDw46-2" target="Ixpic3u72azCKcVnDw46-3" edge="1">
          <mxGeometry width="50" height="50" relative="1" as="geometry">
            <mxPoint x="269.71000000000004" y="380" as="sourcePoint" />
            <mxPoint x="269.71000000000004" y="400" as="targetPoint" />
          </mxGeometry>
        </mxCell>
        <mxCell id="Ixpic3u72azCKcVnDw46-10" value="" style="endArrow=classic;html=1;rounded=0;" parent="1" source="Ixpic3u72azCKcVnDw46-3" edge="1" target="Ixpic3u72azCKcVnDw46-4">
          <mxGeometry width="50" height="50" relative="1" as="geometry">
            <mxPoint x="269.71000000000004" y="460" as="sourcePoint" />
            <mxPoint x="360" y="510" as="targetPoint" />
            <Array as="points">
              <mxPoint x="270" y="500" />
            </Array>
          </mxGeometry>
        </mxCell>
        <mxCell id="Ixpic3u72azCKcVnDw46-11" value="" style="endArrow=classic;html=1;rounded=0;" parent="1" edge="1" target="Ixpic3u72azCKcVnDw46-5" source="Ixpic3u72azCKcVnDw46-4">
          <mxGeometry width="50" height="50" relative="1" as="geometry">
            <mxPoint x="480" y="520" as="sourcePoint" />
            <mxPoint x="530" y="520" as="targetPoint" />
          </mxGeometry>
        </mxCell>
        <mxCell id="Ixpic3u72azCKcVnDw46-12" value="" style="endArrow=classic;html=1;rounded=0;" parent="1" source="Ixpic3u72azCKcVnDw46-5" target="Ixpic3u72azCKcVnDw46-6" edge="1">
          <mxGeometry width="50" height="50" relative="1" as="geometry">
            <mxPoint x="429.71000000000004" y="550" as="sourcePoint" />
            <mxPoint x="429.71000000000004" y="570" as="targetPoint" />
          </mxGeometry>
        </mxCell>
        <mxCell id="Ixpic3u72azCKcVnDw46-14" value="" style="endArrow=classic;html=1;rounded=0;" parent="1" source="Ixpic3u72azCKcVnDw46-2" target="Ixpic3u72azCKcVnDw46-5" edge="1">
          <mxGeometry width="50" height="50" relative="1" as="geometry">
            <mxPoint x="440" y="640" as="sourcePoint" />
            <mxPoint x="600" y="460" as="targetPoint" />
            <Array as="points">
              <mxPoint x="590" y="350" />
            </Array>
          </mxGeometry>
        </mxCell>
        <mxCell id="eTzenVOBAnORxnCVNSbF-1" value="Модуль настройки импульсов" style="rounded=0;whiteSpace=wrap;html=1;" parent="1" vertex="1">
          <mxGeometry x="360" y="380" width="120" height="60" as="geometry" />
        </mxCell>
        <mxCell id="eTzenVOBAnORxnCVNSbF-2" value="" style="endArrow=classic;html=1;rounded=0;" parent="1" target="eTzenVOBAnORxnCVNSbF-1" edge="1">
          <mxGeometry width="50" height="50" relative="1" as="geometry">
            <mxPoint x="420" y="350" as="sourcePoint" />
            <mxPoint x="280" y="410" as="targetPoint" />
          </mxGeometry>
        </mxCell>
        <mxCell id="eTzenVOBAnORxnCVNSbF-3" value="" style="endArrow=classic;html=1;rounded=0;" parent="1" source="eTzenVOBAnORxnCVNSbF-1" target="Ixpic3u72azCKcVnDw46-4" edge="1">
          <mxGeometry width="50" height="50" relative="1" as="geometry">
            <mxPoint x="340" y="440" as="sourcePoint" />
            <mxPoint x="370" y="440" as="targetPoint" />
          </mxGeometry>
        </mxCell>
        <mxCell id="eTzenVOBAnORxnCVNSbF-4" value="" style="shape=waypoint;sketch=0;fillStyle=solid;size=6;pointerEvents=1;points=[];fillColor=none;resizable=0;rotatable=0;perimeter=centerPerimeter;snapToPoint=1;" parent="1" vertex="1">
          <mxGeometry x="410" y="340" width="20" height="20" as="geometry" />
        </mxCell>
        <mxCell id="eTzenVOBAnORxnCVNSbF-6" value="Модуль развязки" style="rounded=0;whiteSpace=wrap;html=1;" parent="1" vertex="1">
          <mxGeometry x="40" y="320" width="120" height="60" as="geometry" />
        </mxCell>
        <mxCell id="fUs4ckd4rYzqVD1drYtA-2" value="" style="endArrow=classic;startArrow=classic;html=1;rounded=0;" parent="1" source="eTzenVOBAnORxnCVNSbF-6" target="Ixpic3u72azCKcVnDw46-2" edge="1">
          <mxGeometry width="50" height="50" relative="1" as="geometry">
            <mxPoint x="100" y="450" as="sourcePoint" />
            <mxPoint x="150" y="400" as="targetPoint" />
          </mxGeometry>
        </mxCell>
        <mxCell id="fUs4ckd4rYzqVD1drYtA-3" value="" style="endArrow=classic;startArrow=classic;html=1;rounded=0;" parent="1" source="Ixpic3u72azCKcVnDw46-4" target="eTzenVOBAnORxnCVNSbF-6" edge="1">
          <mxGeometry width="50" height="50" relative="1" as="geometry">
            <mxPoint x="50" y="480" as="sourcePoint" />
            <mxPoint x="100" y="430" as="targetPoint" />
            <Array as="points">
              <mxPoint x="420" y="560" />
              <mxPoint x="100" y="560" />
            </Array>
          </mxGeometry>
        </mxCell>
        <mxCell id="fUs4ckd4rYzqVD1drYtA-5" value="" style="endArrow=classic;html=1;rounded=0;" parent="1" edge="1" target="Ixpic3u72azCKcVnDw46-4">
          <mxGeometry width="50" height="50" relative="1" as="geometry">
            <mxPoint x="500" y="350" as="sourcePoint" />
            <mxPoint x="480" y="500" as="targetPoint" />
            <Array as="points">
              <mxPoint x="500" y="500" />
            </Array>
          </mxGeometry>
        </mxCell>
        <mxCell id="fUs4ckd4rYzqVD1drYtA-6" value="" style="shape=waypoint;sketch=0;fillStyle=solid;size=6;pointerEvents=1;points=[];fillColor=none;resizable=0;rotatable=0;perimeter=centerPerimeter;snapToPoint=1;" parent="1" vertex="1">
          <mxGeometry x="490" y="340" width="20" height="20" as="geometry" />
        </mxCell>
        <mxCell id="fUs4ckd4rYzqVD1drYtA-7" value="" style="endArrow=classic;html=1;rounded=0;entryX=0.5;entryY=1;entryDx=0;entryDy=0;" parent="1" target="Ixpic3u72azCKcVnDw46-6" edge="1">
          <mxGeometry width="50" height="50" relative="1" as="geometry">
            <mxPoint x="420" y="560" as="sourcePoint" />
            <mxPoint x="490" y="510" as="targetPoint" />
            <Array as="points">
              <mxPoint x="740" y="560" />
            </Array>
          </mxGeometry>
        </mxCell>
        <mxCell id="fUs4ckd4rYzqVD1drYtA-8" value="" style="shape=waypoint;sketch=0;fillStyle=solid;size=6;pointerEvents=1;points=[];fillColor=none;resizable=0;rotatable=0;perimeter=centerPerimeter;snapToPoint=1;" parent="1" vertex="1">
          <mxGeometry x="410" y="550" width="20" height="20" as="geometry" />
        </mxCell>
        <mxCell id="fUs4ckd4rYzqVD1drYtA-9" value="Генератор, управляемый импульсами" style="rounded=0;whiteSpace=wrap;html=1;" parent="1" vertex="1">
          <mxGeometry x="520" y="160" width="200" height="120" as="geometry" />
        </mxCell>
        <mxCell id="fUs4ckd4rYzqVD1drYtA-10" value="CLK" style="rounded=0;whiteSpace=wrap;html=1;" parent="1" vertex="1">
          <mxGeometry x="460" y="170" width="60" height="20" as="geometry" />
        </mxCell>
        <mxCell id="fUs4ckd4rYzqVD1drYtA-11" value="VCC" style="rounded=0;whiteSpace=wrap;html=1;" parent="1" vertex="1">
          <mxGeometry x="460" y="210" width="60" height="20" as="geometry" />
        </mxCell>
        <mxCell id="fUs4ckd4rYzqVD1drYtA-12" value="CLK_OUT" style="rounded=0;whiteSpace=wrap;html=1;" parent="1" vertex="1">
          <mxGeometry x="720" y="210" width="60" height="20" as="geometry" />
        </mxCell>
        <mxCell id="fUs4ckd4rYzqVD1drYtA-13" value="GND" style="rounded=0;whiteSpace=wrap;html=1;" parent="1" vertex="1">
          <mxGeometry x="460" y="250" width="60" height="20" as="geometry" />
        </mxCell>
      </root>
    </mxGraphModel>
  </diagram>
</mxfile>
